<svg width="56" height="59" viewBox="0 0 56 59" fill="none" xmlns="http://www.w3.org/2000/svg">
<path d="M38.704 0.431999H47.216V44.72H38.704V0.431999ZM44.848 18.48H55.088V25.52H44.848V18.48ZM0.624 6.64H35.44V13.296H0.624V6.64ZM18.032 15.408C20.8907 15.408 23.408 15.8987 25.584 16.88C27.8027 17.8187 29.5307 19.1627 30.768 20.912C32.0053 22.6187 32.624 24.5813 32.624 26.8C32.624 29.0613 32.0053 31.0667 30.768 32.816C29.5307 34.5227 27.8027 35.8667 25.584 36.848C23.408 37.7867 20.8907 38.256 18.032 38.256C15.216 38.256 12.6987 37.7867 10.48 36.848C8.26133 35.8667 6.53333 34.5227 5.296 32.816C4.05867 31.0667 3.44 29.0613 3.44 26.8C3.44 24.5813 4.05867 22.6187 5.296 20.912C6.53333 19.1627 8.26133 17.8187 10.48 16.88C12.6987 15.8987 15.216 15.408 18.032 15.408ZM18.032 21.872C16.1547 21.872 14.6187 22.2987 13.424 23.152C12.2293 24.0053 11.632 25.2427 11.632 26.864C11.632 28.4427 12.2293 29.6587 13.424 30.512C14.6187 31.3653 16.1547 31.792 18.032 31.792C19.952 31.792 21.488 31.3653 22.64 30.512C23.8347 29.6587 24.432 28.4427 24.432 26.864C24.432 25.2427 23.8347 24.0053 22.64 23.152C21.488 22.2987 19.952 21.872 18.032 21.872ZM13.808 0.367996H22.256V9.84H13.808V0.367996ZM9.008 51.824H49.328V58.672H9.008V51.824ZM9.008 41.392H17.584V54.768H9.008V41.392Z" fill="#0066FF"/>
</svg>
